<svg width="43" height="43" fill="none" xmlns="http://www.w3.org/2000/svg"><path stroke="#fff" stroke-width="2" d="M1 0v14M1 0v14M1 0v14M1 0v14M1 0v14m0 14.002v14m0-14v14m0-14v14m0-14v14m0-14v14M0 1h14M0 1h14M0 1h14M0 1h14M0 1h14M0 41h14M0 41h14M0 41h14M0 41h14M0 41h14m27.023 1.011l-.17-13.999m.17 13.999l-.17-13.999m.17 13.999l-.17-13.999m.17 13.999l-.17-13.999m.17 13.999l-.17-13.999m.316-14.001L40.999.012m.17 13.999L40.999.012m.17 13.999L40.999.012m.17 13.999L40.999.012m.17 13.999L40.999.012m1.012 40.987l-13.999.17m13.999-.17l-13.999.17m13.999-.17l-13.999.17m13.999-.17l-13.999.17m13.999-.17l-13.999.17M42.011 1l-13.999.17M42.011 1l-13.999.17M42.011 1l-13.999.17M42.011 1l-13.999.17M42.011 1l-13.999.17"/><circle cx="21.5" cy="16.5" r="4" stroke="#fff"/><path d="M27.947 28.922L27.2 24.58c-.404-2.35-3.319-3.53-5.703-3.464v0c-2.539.069-5.736 1.552-5.936 4.082l-.307 3.876" stroke="#fff"/></svg>