<svg width="60" height="42" fill="none" xmlns="http://www.w3.org/2000/svg"><path stroke="#fff" stroke-width="2" d="M1 1h58v40H1z"/><path d="M12 25.757l6.472-7.096a1 1 0 011.416-.063l4.945 4.546" stroke="#fff"/><path d="M20.167 28.5l12.116-13.69a1 1 0 011.468-.032L47 28.5" stroke="#fff" stroke-width="2"/><path d="M33.168 14.578l3.792 4.311-.205.366a1 1 0 01-1.606.194l-.519-.56-.829.822a1 1 0 01-1.454-.05l-.68-.772-.551.61a1 1 0 01-1.576-.117l-.327-.493 3.955-4.31zm-13.523 4.125l2.855 2.299-.05.062a1 1 0 01-1.391.177l-.313-.24-.576.405a1 1 0 01-1.201-.039l-.455-.365-.344.27a1 1 0 01-1.348-.104l-.155-.166 1.166-1.515.584-.392 1.228-.392z" fill="#fff"/></svg>