<svg width="43" height="43" viewBox="0 0 43 43" fill="none" xmlns="http://www.w3.org/2000/svg">
<line x1="1" y1="3.12224e-08" x2="1" y2="14" stroke="white" stroke-width="2"/>
<line x1="1" y1="3.12224e-08" x2="1" y2="14" stroke="white" stroke-width="2"/>
<line x1="1" y1="3.12224e-08" x2="1" y2="14" stroke="white" stroke-width="2"/>
<line x1="1" y1="3.12224e-08" x2="1" y2="14" stroke="white" stroke-width="2"/>
<line x1="1" y1="3.12224e-08" x2="1" y2="14" stroke="white" stroke-width="2"/>
<line x1="1" y1="28.0021" x2="1" y2="42.0021" stroke="white" stroke-width="2"/>
<line x1="1" y1="28.0021" x2="1" y2="42.0021" stroke="white" stroke-width="2"/>
<line x1="1" y1="28.0021" x2="1" y2="42.0021" stroke="white" stroke-width="2"/>
<line x1="1" y1="28.0021" x2="1" y2="42.0021" stroke="white" stroke-width="2"/>
<line x1="1" y1="28.0021" x2="1" y2="42.0021" stroke="white" stroke-width="2"/>
<line y1="1" x2="14" y2="1" stroke="white" stroke-width="2"/>
<line y1="1" x2="14" y2="1" stroke="white" stroke-width="2"/>
<line y1="1" x2="14" y2="1" stroke="white" stroke-width="2"/>
<line y1="1" x2="14" y2="1" stroke="white" stroke-width="2"/>
<line y1="1" x2="14" y2="1" stroke="white" stroke-width="2"/>
<line y1="41" x2="14" y2="41" stroke="white" stroke-width="2"/>
<line y1="41" x2="14" y2="41" stroke="white" stroke-width="2"/>
<line y1="41" x2="14" y2="41" stroke="white" stroke-width="2"/>
<line y1="41" x2="14" y2="41" stroke="white" stroke-width="2"/>
<line y1="41" x2="14" y2="41" stroke="white" stroke-width="2"/>
<line x1="41.0234" y1="42.0111" x2="40.8532" y2="28.0121" stroke="white" stroke-width="2"/>
<line x1="41.0234" y1="42.0111" x2="40.8532" y2="28.0121" stroke="white" stroke-width="2"/>
<line x1="41.0234" y1="42.0111" x2="40.8532" y2="28.0121" stroke="white" stroke-width="2"/>
<line x1="41.0234" y1="42.0111" x2="40.8532" y2="28.0121" stroke="white" stroke-width="2"/>
<line x1="41.0234" y1="42.0111" x2="40.8532" y2="28.0121" stroke="white" stroke-width="2"/>
<line x1="41.1692" y1="14.0111" x2="40.999" y2="0.012149" stroke="white" stroke-width="2"/>
<line x1="41.1692" y1="14.0111" x2="40.999" y2="0.012149" stroke="white" stroke-width="2"/>
<line x1="41.1692" y1="14.0111" x2="40.999" y2="0.012149" stroke="white" stroke-width="2"/>
<line x1="41.1692" y1="14.0111" x2="40.999" y2="0.012149" stroke="white" stroke-width="2"/>
<line x1="41.1692" y1="14.0111" x2="40.999" y2="0.012149" stroke="white" stroke-width="2"/>
<line x1="42.0111" y1="40.999" x2="28.0121" y2="41.1692" stroke="white" stroke-width="2"/>
<line x1="42.0111" y1="40.999" x2="28.0121" y2="41.1692" stroke="white" stroke-width="2"/>
<line x1="42.0111" y1="40.999" x2="28.0121" y2="41.1692" stroke="white" stroke-width="2"/>
<line x1="42.0111" y1="40.999" x2="28.0121" y2="41.1692" stroke="white" stroke-width="2"/>
<line x1="42.0111" y1="40.999" x2="28.0121" y2="41.1692" stroke="white" stroke-width="2"/>
<line x1="42.0111" y1="0.999926" x2="28.0121" y2="1.17006" stroke="white" stroke-width="2"/>
<line x1="42.0111" y1="0.999926" x2="28.0121" y2="1.17006" stroke="white" stroke-width="2"/>
<line x1="42.0111" y1="0.999926" x2="28.0121" y2="1.17006" stroke="white" stroke-width="2"/>
<line x1="42.0111" y1="0.999926" x2="28.0121" y2="1.17006" stroke="white" stroke-width="2"/>
<line x1="42.0111" y1="0.999926" x2="28.0121" y2="1.17006" stroke="white" stroke-width="2"/>
<circle cx="21.5" cy="16.5" r="4" stroke="white"/>
<path d="M27.9467 28.9223L27.1998 24.5793C26.7956 22.2289 23.8815 21.0498 21.497 21.1147V21.1147C18.9582 21.1837 15.7612 22.6672 15.561 25.1971L15.2544 29.0727" stroke="white"/>
</svg>
