<svg width="60" height="42" viewBox="0 0 60 42" fill="none" xmlns="http://www.w3.org/2000/svg">
<rect x="1" y="1" width="58" height="40" stroke="white" stroke-width="2"/>
<path d="M12 25.7568L18.4721 18.6606C18.8452 18.2515 19.4799 18.2235 19.8876 18.5983L24.8333 23.1441" stroke="white"/>
<path d="M20.1667 28.5L32.2831 14.81C32.6696 14.3733 33.3463 14.3586 33.7513 14.7782L47 28.5" stroke="white" stroke-width="2"/>
<path d="M33.1684 14.5783L36.9598 18.8891L36.7555 19.2554C36.4245 19.8485 35.6113 19.9462 35.1493 19.4485L34.6301 18.8891L33.8013 19.7105C33.3928 20.1154 32.7278 20.0931 32.3474 19.6617L31.6661 18.8891L31.1157 19.4991C30.6781 19.9842 29.9004 19.9262 29.5396 19.3815L29.2134 18.8891L33.1684 14.5783Z" fill="white"/>
<path d="M19.6449 18.7027L22.5 21.0018L22.4507 21.0644C22.1126 21.4935 21.4928 21.5719 21.0586 21.2406L20.7456 21.0018L20.1695 21.4062C19.8053 21.6619 19.3158 21.6461 18.9688 21.3674L18.5136 21.0018L18.17 21.2715C17.7619 21.5919 17.1766 21.547 16.8222 21.1681L16.6667 21.0018L17.8333 19.4865L18.4167 19.0946L19.6449 18.7027Z" fill="white"/>
</svg>
